<svg xmlns="http://www.w3.org/2000/svg" width="29" height="53.1" xmlns:v="https://vecta.io/nano"><path d="M1.6 9.4v34.2c0 4.5 3.7 8.3 8.3 8.3h0 9.3c4.5 0 8.3-3.7 8.3-8.3h0V9.4c0-4.5-3.7-8.3-8.3-8.3h0-9.4c-4.5.1-8.2 3.8-8.2 8.3h0z" fill="#fff"/><path d="M10 53.1c-5.5 0-10-4.5-10-10h0V10C0 4.5 4.5 0 10 0h0 9c5.5 0 10 4.5 10 10h0v33.1c0 5.5-4.5 10-10 10h0-9 0zM2 10v33.1c0 4.4 3.6 8 8 8h0 9c4.4 0 8-3.6 8-8h0V10c0-4.4-3.6-8-8-8h0-9c-4.4 0-8 3.6-8 8h0zm8.2 29.8V13.6h1v26.2h-1zm4.1 0V13.6h1v26.2h-1zm4.3 0V13.6h1v26.2h-1z" fill="#ccc"/></svg>