<?xml version="1.0" encoding="utf-8"?>
<!-- Generator: Adobe Illustrator 24.3.0, SVG Export Plug-In . SVG Version: 6.00 Build 0)  -->
<svg version="1.1" xmlns="http://www.w3.org/2000/svg" xmlns:xlink="http://www.w3.org/1999/xlink" x="0px" y="0px"
	 viewBox="0 0 173 173" style="enable-background:new 0 0 173 173;" xml:space="preserve">
<style type="text/css">
	.st0{fill:none;}
	.st1{fill:#F6BB60;}
	.st2{fill:#FFFFFF;}
	.st3{fill:#0779AF;}
	.st4{fill:#057DB7;}
</style>
<g id="Layer_1">
	<g>
		<g>
			<path class="st3" d="M86.5,0C38.7,0,0,38.7,0,86.5C0,134.3,38.7,173,86.5,173c47.8,0,86.5-38.7,86.5-86.5
				C173,38.7,134.3,0,86.5,0z M86.5,169.6c-45.9,0-83.1-37.2-83.1-83.1c0-45.9,37.2-83.1,83.1-83.1c45.9,0,83.1,37.2,83.1,83.1
				C169.6,132.4,132.4,169.6,86.5,169.6z"/>
		</g>
	</g>
</g>
<g id="Layer_3">
	<g>
		<path class="st4" d="M99.1,121.8c0,0,0-5.3,0-11.4l0,0c0.1-2.8,1.2-5,2.4-7.2l0,0c1.3-2.2,2.8-4.5,4.3-6.8l0,0
			c3-4.7,5.6-9.8,5.6-14.5l0,0c0-5.3-1.7-10.5-5.3-14.3l0,0c-3.6-3.8-9.3-6.6-18.5-6.6l0,0c-9.4,0-15.6,2.4-19.8,6l0,0
			c-4.2,3.6-6.3,8.6-6.4,15l0,0c0,5.3,2.4,10.2,5.4,14.5l0,0c3,4.3,6,7.6,7.9,10.5l0,0c0.5,0.9,1.2,1.8,1.2,3.6l0,0
			c0,3.3,0,11.4,0,11.4l0,0h-7.6c0,0,0-7.3,0-10.8l0,0c0,0,0,0,0-0.1l0,0c-0.2-0.4-0.8-1.1-1.4-1.9l0,0c-1.3-1.6-2.9-3.8-4.8-6.4
			l0,0c-3.9-5.2-8.2-12.2-8.2-20.8l0,0c0-8.2,3-15.7,9-20.8l0,0c6-5.1,14.1-7.8,24.7-7.8l0,0c10.7,0,18.8,3.5,24,9l0,0
			c5.2,5.5,7.4,12.7,7.4,19.6l0,0c-0.1,11-7.9,19.5-11,25.1l0,0c-1.1,1.8-1.5,3.2-1.4,3.4l0,0c0,6.1,0,11.4,0,11.4l0,0H99.1
			L99.1,121.8z"/>
	</g>
	<g>
		<polygon class="st4" points="68.1,134.7 68.1,127.1 107.3,127.1 107.3,134.7 68.1,134.7 		"/>
	</g>
	<path class="st4" d="M68.1,139h39.2v6c0,0-5.6,4.7-20.4,4.7c-14.8,0-18.8-4.7-18.8-4.7V139z"/>
</g>
</svg>
