<?xml version="1.0" encoding="utf-8"?>
<!-- Generator: Adobe Illustrator 24.3.0, SVG Export Plug-In . SVG Version: 6.00 Build 0)  -->
<svg version="1.1" id="Layer_1" xmlns="http://www.w3.org/2000/svg" xmlns:xlink="http://www.w3.org/1999/xlink" x="0px" y="0px"
	 viewBox="0 0 173 173" style="enable-background:new 0 0 173 173;" xml:space="preserve">
<style type="text/css">
	.st0{fill:#0779AF;}
	.st1{fill:#FFFFFF;}
</style>
<g id="Layer_1_1_">
	<g>
		<g>
			<path class="st0" d="M86.5,0C38.7,0,0,38.7,0,86.5S38.7,173,86.5,173S173,134.3,173,86.5S134.3,0,86.5,0z"/>
		</g>
	</g>
</g>
<g id="Layer_3">
	<g>
		<path class="st1" d="M99.1,121.8c0,0,0-5.3,0-11.4l0,0c0.1-2.8,1.2-5,2.4-7.2l0,0c1.3-2.2,2.8-4.5,4.3-6.8l0,0
			c3-4.7,5.6-9.8,5.6-14.5l0,0c0-5.3-1.7-10.5-5.3-14.3l0,0c-3.6-3.8-9.3-6.6-18.5-6.6l0,0c-9.4,0-15.6,2.4-19.8,6l0,0
			c-4.2,3.6-6.3,8.6-6.4,15l0,0c0,5.3,2.4,10.2,5.4,14.5l0,0c3,4.3,6,7.6,7.9,10.5l0,0c0.5,0.9,1.2,1.8,1.2,3.6l0,0
			c0,3.3,0,11.4,0,11.4l0,0h-7.6c0,0,0-7.3,0-10.8l0,0c0,0,0,0,0-0.1l0,0c-0.2-0.4-0.8-1.1-1.4-1.9l0,0c-1.3-1.6-2.9-3.8-4.8-6.4
			l0,0c-3.9-5.2-8.2-12.2-8.2-20.8l0,0c0-8.2,3-15.7,9-20.8l0,0c6-5.1,14.1-7.8,24.7-7.8l0,0c10.7,0,18.8,3.5,24,9l0,0
			c5.2,5.5,7.4,12.7,7.4,19.6l0,0c-0.1,11-7.9,19.5-11,25.1l0,0c-1.1,1.8-1.5,3.2-1.4,3.4l0,0c0,6.1,0,11.4,0,11.4l0,0L99.1,121.8
			L99.1,121.8z"/>
	</g>
	<g>
		<polygon class="st1" points="68.1,134.7 68.1,127.1 107.3,127.1 107.3,134.7 		"/>
	</g>
	<path class="st1" d="M68.1,139h39.2v6c0,0-5.6,4.7-20.4,4.7S68.1,145,68.1,145S68.1,139,68.1,139z"/>
	<rect x="82.9" y="25.5" class="st1" width="6.3" height="18"/>
	<rect x="129.4" y="75.8" class="st1" width="18" height="6.3"/>
	<rect x="26.8" y="75.8" class="st1" width="18" height="6.3"/>
	<rect x="47.5" y="35.1" transform="matrix(0.6998 -0.7143 0.7143 0.6998 -16.2904 49.4448)" class="st1" width="6.3" height="18"/>
	<polygon class="st1" points="126.2,35.6 130.7,40 118,52.8 113.5,48.3 	"/>
	<polygon class="st1" points="53.4,106.1 57.9,110.6 45.2,123.3 40.7,118.9 	"/>
	<rect x="122.1" y="105.4" transform="matrix(0.7 -0.7142 0.7142 0.7 -44.0936 123.8013)" class="st1" width="6.3" height="18"/>
</g>
</svg>
