<svg width="32" height="32" viewBox="0 0 32 32" fill="none" xmlns="http://www.w3.org/2000/svg">
<path d="M22 8.46L16 14.46L10 8.46L8.48001 10L14.48 16L8.48001 22L9.98001 23.5L15.98 17.5L21.98 23.5L23.5 22L17.5 16L23.5 10L22 8.46Z" fill="#0E0E0E"/>
<path d="M16 0C12.8355 0 9.74207 0.938384 7.11088 2.69649C4.4797 4.45459 2.42894 6.95345 1.21793 9.87706C0.0069325 12.8007 -0.309921 16.0177 0.307443 19.1214C0.924806 22.2251 2.44866 25.0761 4.6863 27.3137C6.92394 29.5513 9.77487 31.0752 12.8786 31.6926C15.9823 32.3099 19.1993 31.9931 22.1229 30.7821C25.0466 29.5711 27.5454 27.5203 29.3035 24.8891C31.0616 22.2579 32 19.1645 32 16C32 11.7565 30.3143 7.68687 27.3137 4.68629C24.3131 1.68571 20.2435 0 16 0ZM16 29.86C13.2588 29.86 10.5791 29.0471 8.2998 27.5242C6.02054 26.0012 4.24407 23.8366 3.19504 21.304C2.14601 18.7714 1.87153 15.9846 2.40632 13.296C2.94111 10.6075 4.26115 8.13786 6.19951 6.1995C8.13786 4.26114 10.6075 2.94111 13.2961 2.40632C15.9846 1.87152 18.7714 2.146 21.304 3.19503C23.8366 4.24406 26.0012 6.02053 27.5242 8.2998C29.0471 10.5791 29.86 13.2588 29.86 16C29.8547 19.6743 28.3928 23.1965 25.7947 25.7947C23.1966 28.3928 19.6743 29.8547 16 29.86Z" fill="#0E0E0E"/>
</svg>
