<?xml version="1.0" encoding="utf-8"?>
<!-- Generator: Adobe Illustrator 24.3.0, SVG Export Plug-In . SVG Version: 6.00 Build 0)  -->
<svg version="1.1" id="Layer_1" xmlns="http://www.w3.org/2000/svg" xmlns:xlink="http://www.w3.org/1999/xlink" x="0px" y="0px"
	 viewBox="0 0 173 173" style="enable-background:new 0 0 173 173;" xml:space="preserve">
<style type="text/css">
	.st0{fill:#0779AF;}
</style>
<path class="st0" d="M86.5,0C38.7,0,0,38.7,0,86.5S38.7,173,86.5,173S173,134.3,173,86.5S134.3,0,86.5,0z M86.5,169.6
	c-45.9,0-83.1-37.2-83.1-83.1S40.6,3.4,86.5,3.4s83.1,37.2,83.1,83.1S132.4,169.6,86.5,169.6z"/>
<polygon class="st0" points="70.9,124.1 36.6,42.5 28.1,46.1 64.8,133.1 140.5,133.1 140.5,124.1 "/>
<path class="st0" d="M131.1,65.2l-2.3,10.3c-15.4-27.3-44.8-29-53.9-29v8.4c21.6,0,35.3,10.4,46.1,25.9l-10.7-2.4l-2.1,9.5l26.4,5.8
	l5.8-26.4L131.1,65.2z"/>
</svg>
