<?xml version="1.0" encoding="utf-8"?>
<!-- Generator: Adobe Illustrator 24.3.0, SVG Export Plug-In . SVG Version: 6.00 Build 0)  -->
<svg version="1.1" id="Layer_1" xmlns="http://www.w3.org/2000/svg" xmlns:xlink="http://www.w3.org/1999/xlink" x="0px" y="0px"
	 viewBox="0 0 173 173" style="enable-background:new 0 0 173 173;" xml:space="preserve">
<style type="text/css">
	.st0{fill:#0779AF;}
	.st1{fill:#FFFFFF;}
</style>
<g id="Layer_1_1_">
	<g>
		<g>
			<path class="st0" d="M86.5,0C38.7,0,0,38.7,0,86.5S38.7,173,86.5,173S173,134.3,173,86.5S134.3,0,86.5,0z"/>
		</g>
	</g>
</g>
<path class="st1" d="M88.4,47.9l8.8-5.8L91.8,34L69.3,49l15,22.5l8.1-5.4L86.3,57c18.4,4.4,33,13.4,40.9,33.6l7.9-3.1
	C131.7,79.2,119.5,52.3,88.4,47.9z"/>
<rect x="45.8" y="106.8" class="st1" width="94.4" height="7.6"/>
<rect x="45.8" y="118.1" class="st1" width="94.4" height="7.6"/>
<path class="st1" d="M42.1,125.7L42.1,125.7l0-18.8h0c-5.2,0-9.4,4.2-9.4,9.4v0C32.6,121.4,36.9,125.7,42.1,125.7z"/>
</svg>
