<svg xmlns="http://www.w3.org/2000/svg" width="201.4" height="92.4" xmlns:v="https://vecta.io/nano"><g fill="#aeafaf"><path d="M29.5 27.8c-2.4-2.8-4.1-3.9-4.7-3.8h0c-.4 0-.9.2-1.7 1h0c-1.1 1.1-1.4 2.2-1.4 3.4h0a7.45 7.45 0 0 0 .7 3.1h0l.7 1.3h0 0l-2.3 1.5c-.1-.1-1.8-2.6-1.9-6h0c0-1.7.6-3.7 2.2-5.3h0c1-1.1 2.2-1.8 3.6-1.8h0c2.5.1 4.3 2 6.8 4.8h0c3.8 4.3 19.7 21 19.7 21h0l-2 1.9-19.7-21.1h0z"/><path d="M51.1 36.7l-.1-.1c-1-1.3-1.7-1.5-2.2-1.5h0c-.9-.1-2.3 1-3.3 2.4h0c-1 1.3-1.7 2.7-1.7 2.7h0L41.3 39s.8-1.6 2-3.2h0c1.2-1.6 3-3.4 5.5-3.5h0c1.6 0 3.1.9 4.4 2.5h0l4.2 4.2-2 2-4.3-4.3h0zm-7.4 3.4h0 0 0 0 0z"/><path d="M22.4 83.7c-.1-.1-2.8-2.2-2.9-5.5h0c0-2.1 1.4-4.3 4.6-5.9h0c3.2-1.6 8.2-2.9 16.4-3.6h0 .6L17 42.1h0c-.9-.9-1.2-2.1-1.2-3.2h0c.1-3 1.9-6.6 5.7-6.8h0c1.3 0 2.7.6 4 1.8h0c6.5 6 18.3 19.4 18.3 19.4h0l-2 1.8S30 41.7 23.7 35.9h0c-.9-.8-1.6-1-2.1-1h0c-.7 0-1.4.4-2 1.2h0c-.6.8-.9 1.9-.9 2.8h0c0 .7.2 1.1.4 1.3h0C20.4 41.7 45 69 45.1 69h0l-1 2.3-3.5.1c-7.9.7-12.7 2-15.3 3.3h0c-2.7 1.4-3 2.5-3.1 3.4h0c0 .8.4 1.7.9 2.3h0c.2.3.5.6.6.8h0l37.3-.5c1.1-.8 4.9-3.5 8.7-7.2h0c4.5-4.4 8.8-10.3 8.8-15.4h0v-.2h0c-.1-5.3-4.2-11.6-8.4-16.4h0c-4.2-4.9-8.4-8.3-8.4-8.3h0c-1.4-1.2-2.5-1.5-3.2-1.5h0c-1.1 0-2 .9-2.7 2.2h0c-.7 1.2-1 2.5-1 2.5h0l-2.8-.6c0-.1.3-1.6 1.2-3.2h0c.9-1.6 2.5-3.6 5.1-3.6h0c1.5 0 3.2.7 4.9 2.1h0c0 .2 17.3 13.8 17.8 26.8h0v.2h0c-.1 6.6-4.9 12.7-9.6 17.3h0C66.7 80 62 83.1 62 83.1h0l-.7.2-38 .7-.9-.3h0z"/></g><path d="M2.3 38.8c-.3-1.7-.5-3.2-.5-4.5h0c0-3.6 1-5.8 2.3-7h0c.5-.5 1-.8 1.4-1.1h0v-1h0c0-2.3.3-6.1 2.1-9.6h0C9.4 12.1 13 8.8 19 8.2h0c.7-.1 1.4-.1 2.1-.1h0c6.8 0 11 4 13.2 7.7h0c2.3 3.8 2.8 7.5 2.8 7.6h0l-2.7.4s-.1-.8-.5-2h0c-.4-1.2-1-2.9-2-4.6h0c-2-3.3-5.2-6.4-10.8-6.4h0c-.6 0-1.2 0-1.8.1h0c-5.2.6-7.7 3.1-9.3 6h0c-1.5 2.9-1.8 6.3-1.8 8.3h0c0 1.1.1 1.7.1 1.7h0l-1.2 1.5h0 0s-.1 0-.2.1h0c-.2.1-.5.3-.9.6h0c-.6.7-1.5 2-1.5 5.1h0c0 1.1.1 2.4.4 4h0c.9 4.8 4.2 7.5 7.4 9.1h0c3.3 1.6 6.3 2 6.3 2h0 0l-.3 2.7c0 .1-13.7-1.3-16-13.2h0zm4.9-10.3h0 0 0 0z" fill="#36a6dc"/><path d="M173.2 25v6.5c0 1.5.9 2.7 2.1 3.3.5.2 1 .3 1.5.3s1-.1 1.4-.3c1.3-.5 2.3-1.8 2.3-3.4V25c0-1.5-.9-2.8-2.3-3.4-.4-.2-.9-.3-1.4-.3s-1 .1-1.5.3c-1.3.6-2.1 1.9-2.1 3.4z" fill="#fff"/><path d="M181.4 12.8h-3.2v6.6h.1c2.2 0 4 1.8 4 4v10c0 2.2-1.8 4-4 4h-.1V48h-2.9V37.5c-2.2 0-4-1.8-4-4v-10c0-2.2 1.8-4 4-4v-6.6h-3.9c-11.1 0-20 9-20 20v15.2V72c0 11.1 9 20 20 20h10c11.1 0 20-9 20-20V48.1 32.9c0-11.1-8.9-20.1-20-20.1z" fill="#aeafaf"/><path d="M201.4 32.9c0-11.1-9-20-20-20h-3.2v6.6h.1c2.2 0 4 1.8 4 4v10c0 2.2-1.8 4-4 4h-.1v10.6h23.3V32.9z" fill="#36a6dc"/><defs ><path  d="M61.8-71.7v.2c-.1.1-.1.1-.2.1-.1.1-.1.3-.1.4-.2.1 0 .2 0 .3v.2c0 .1 0 .3.1.4.1.2.3.4.4.5.2.1.4.6.6.6s.4-.1.5-.1c.2 0 .4 0 .6-.1s.1-.3.3-.5c.1-.1.3 0 .4-.1.2-.1.3-.3.4-.5v-.2c0-.1.1-.2.1-.3s-.1-.1-.1-.2v-.3c0-.2 0-.4-.1-.5-.4-.7-1.2-.9-2-.8-.2 0-.3.1-.4.2-.2.1-.1.2-.3.2-.1 0-.2.1-.2.2v.3c0 .1 0 .1 0 0"/><path  d="M69.4-64v.2c-.1.1-.1.1-.2.1-.1.1-.1.3-.1.4-.2.1 0 .2 0 .3v.2c0 .1 0 .3.1.4.1.2.3.4.4.5.2.1.4.6.6.6s.4-.1.5-.1c.2 0 .4 0 .6-.1s.1-.3.3-.5c.1-.1.3 0 .4-.1.2-.1.3-.3.4-.5v-.2c0-.1.1-.2.1-.3s-.1-.1-.1-.2v-.3c0-.2 0-.4-.1-.5-.4-.7-1.2-.9-2-.8-.2 0-.3.1-.4.2-.2.1-.1.2-.3.2-.1 0-.2.1-.2.2v.3"/><path  d="M8.2-56.3v.2c-.1 0-.2 0-.2.1-.1.1-.1.3-.1.4-.2.1 0 .2 0 .3v.2c0 .1 0 .3.1.4.1.2.3.4.4.5.2.1.4.6.6.6s.4-.1.5-.1c.2 0 .4 0 .6-.1s.1-.3.3-.5c.1-.1.3 0 .4-.1.2-.1.3-.3.4-.5v-.2c0-.1.1-.2.1-.3s-.1-.1-.1-.2v-.3c0-.2 0-.4-.1-.5-.4-.7-1.2-.9-2-.8-.2 0-.3.1-.4.2-.2.1-.1.2-.3.2-.1 0-.2.1-.2.2v.3c-.1 0-.1 0 0 0"/><path  d="M69.4-18.1v.2c-.1.1-.1.1-.2.1-.1.1-.1.3-.1.4-.2.1 0 .2 0 .3v.2c0 .1 0 .3.1.4.1.2.3.4.4.5.2.1.4.6.6.6s.4-.1.5-.1c.2 0 .4 0 .6-.1s.1-.3.3-.5c.1-.1.3 0 .4-.1.2-.1.3-.3.4-.5v-.2c0-.1.1-.2.1-.3s-.1-.1-.1-.2v-.3c0-.2 0-.4-.1-.5-.4-.7-1.2-.9-2-.8-.2 0-.3.1-.4.2-.2.1-.1.2-.3.2-.1 0-.2.1-.2.2v.3c0 .1 0 0 0 0"/><path  d="M61.8-10.4v.2c-.1.1-.1.1-.2.1-.1.1-.1.3-.1.4-.2.1 0 .2 0 .3v.2c0 .1 0 .3.1.4.1.2.3.4.4.5.2.1.4.6.6.6s.4-.1.5-.1c.2 0 .4 0 .6-.1s.1-.3.3-.4c.1-.1.3 0 .4-.1.2-.1.3-.3.4-.5v-.2c0-.1.1-.2.1-.3s-.1-.1-.1-.2v-.3c0-.2 0-.4-.1-.5-.4-.7-1.2-.9-2-.8-.2 0-.3.1-.4.2-.2.1-.1.2-.3.2-.1 0-.2.1-.2.2v.2"/><path  d="M61.8-2.8v.2c-.1.1-.1.1-.2.1-.1.1-.1.3-.1.4-.2.1 0 .2 0 .3v.2c0 .1 0 .3.1.4 0 .2.2.4.4.5s.4.6.6.6.4-.1.5-.1c.2 0 .4 0 .6-.1s.1-.3.3-.5c.1-.1.3 0 .4-.1.2-.1.3-.3.4-.5v-.2c0-.1.1-.2.1-.3s-.1-.1-.1-.2v-.3c0-.2 0-.4-.1-.5-.4-.7-1.2-.9-2-.8-.2 0-.3.1-.4.2-.2.1-.1.2-.3.2-.1 0-.2.1-.2.2v.3c0 .1 0 0 0 0"/><path  d="M31.1-2.8v.2c-.1.1-.1.1-.2.1-.1.1-.1.3-.1.4-.2.1 0 .2 0 .3v.2c0 .1 0 .3.1.4.1.2.2.4.4.5s.4.6.6.6.4-.1.5-.1c.2 0 .4 0 .6-.1s.1-.3.3-.5c.1-.1.3 0 .4-.1.2-.1.3-.3.4-.5v-.2c0-.1.1-.2.1-.3s-.1-.1-.1-.2v-.3c0-.2 0-.4-.1-.5-.4-.7-1.2-.9-2-.8-.2 0-.3.1-.4.2-.2.1-.1.2-.3.2-.1 0-.2.1-.2.2v.3c0 .1 0 0 0 0"/></defs></svg>