<svg xmlns="http://www.w3.org/2000/svg" width="201.4" height="92.4" xmlns:v="https://vecta.io/nano"><path d="M18.6 24l2.6-3.1h0c1.4-1.7 2.9-3.8 3.3-4.9h0c.1-.2.1-.3.1-.3h0c0-.1-.2-.5-1-.8h0c-.7-.3-1.5-.4-1.5-.4h0-.2l-.1-.1c-3.6-1.5-5.8-3.1-5.9-5.6h0c.3-3.2 3.4-4.7 7.7-6.1h0C28 1.4 33.9.4 40.7.2h0C41.8 0 43 0 44.1 0h0c8 0 13 1.1 16.2 2.8h0c3.2 1.7 4.5 4.2 4.5 6.3h0c0 1.6-1.1 2.7-2.2 3.6h0c-1.2.9-2.6 1.6-4 2.3h0c-2.8 1.3-5.6 2.1-5.6 2.1h0l-.8-2.6s1.5-.4 3.3-1.1h0c1.8-.7 4.1-1.7 5.4-2.8h0c.9-.7 1.2-1.3 1.2-1.4h0c-.1-1.2-.6-2.6-3.1-4h0c-2.6-1.4-7.2-2.5-14.9-2.5h0c-1.1 0-2.2 0-3.4.1h0c-9.8.3-18 2.3-20.9 4.4h0c-1 .7-1.2 1.3-1.2 1.5h0c-.1.3.8 1.7 4.1 3h0c.3.1 1.1.2 2 .6h0c1 .5 2.6 1.4 2.7 3.3h0c0 .5-.1 1-.3 1.4h0c-1.5 3.2-6.3 8.7-6.4 8.8h0L18.6 24h0z" fill="#36a6dc"/><g fill="#aeafaf"><path d="M29.6 60.3V19.4h0c0-2.3.9-3.9 2.1-4.8h0c1.2-.9 2.6-1 3.5-1h0c.6 0 1 .1 1.2.1h0c.4 0 1.7.2 3.2 1h0c1.7 1 3.3 3.2 3.3 6.6h0v31h0-2.7v-31h0c-.1-3.9-2.2-4.5-3.4-4.9h0c-.4-.1-.6-.1-.6-.1h0-.1-.1s-.3-.1-.7-.1h0c-.6 0-1.4.1-1.9.5h0c-.5.4-1 .9-1 2.6h0v40.9h0-2.8v.1z"/><path d="M50.3 52.3V40.4c-.2-4.1-2-4.3-4.2-4.5h0c-1.6 0-3 .5-3.1.5h0 0l-.9-2.6c.1 0 1.8-.7 4-.7h0c1.4 0 3.1.3 4.5 1.4h0c1.4 1.1 2.3 3.1 2.4 5.8h0v11.9h-2.7v.1z"/><path d="M60.6 52.3V45c-.2-4-2.1-4.3-4.6-4.4h0c-1.8 0-3.5.5-3.5.5h0 0l-.9-2.6c.1 0 2-.7 4.4-.7h0c1.5 0 3.3.3 4.8 1.4h0c1.5 1.1 2.5 3.1 2.5 5.8h0v7.3h-2.7 0z"/><path d="M51.2 91.6c-5.2 0-9.2-.9-9.3-1h0-.2l-.2-.1c-2.9-1.6-9.9-9.1-17.1-17h0L9.2 56.7h0c-.6-.6-.9-1.5-.9-2.2h0c.1-2.6 2.3-4.4 3.8-5.6h0c1.3-.9 2.9-1.3 4.5-1.3h0a9.77 9.77 0 0 1 5.9 2h0c3.5 3 9.1 8.9 9.1 8.9h0l-2 1.9s-5.6-5.9-8.9-8.6h0c-1-.9-2.6-1.4-4.1-1.4h0c-1.1 0-2.2.3-2.9.8h0c-1.3.8-2.8 2.9-2.7 3.4h0c0 .1 0 .1.1.3h0c1.5 1.5 8.2 9.2 15.3 16.9h0c6.7 7.5 14.1 15.1 16.1 16.3h0c.3.1 1.2.2 2.4.4h0c1.6.2 3.7.4 6.1.4h0c8-.1 18-2.2 19.9-13.8h0c.3-1.8.4-5.8.4-9.6h0l-.1-9.3h0v-7.3c-.2-4-2.1-4.3-4.6-4.4h0c-1.8 0-3.5.5-3.5.5h0l-.9-2.6c.1 0 2-.7 4.4-.7h0c1.5 0 3.3.3 4.8 1.4h0c1.5 1.1 2.5 3.1 2.5 5.8h0v7.3l.1 9.3h0c0 3.9-.1 7.9-.4 10.1h0c-2.3 13.3-14 16.1-22.3 16.1h0c.1-.1 0-.1-.1-.1h0z"/></g><path d="M173.2 24.9v6.5c0 1.5.9 2.7 2.1 3.3.5.2 1 .3 1.5.3s.9-.1 1.4-.3c1.3-.5 2.3-1.8 2.3-3.4v-6.5c0-1.5-.9-2.8-2.3-3.4-.4-.2-.9-.3-1.4-.3s-1 .1-1.5.3c-1.2.8-2.1 2.1-2.1 3.5z" fill="#fff"/><path d="M181.4 12.8h-3.2v6.6h.1c2.2 0 4 1.8 4 4v10c0 2.2-1.8 4-4 4h-.1V48h-2.9V37.5c-2.2 0-4-1.8-4-4v-10c0-2.2 1.8-4 4-4v-6.6h-3.9c-11.1 0-20 9-20 20V48v23.9c0 11.1 9 20 20 20h10c11.1 0 20-9 20-20V48 32.9c0-11.1-8.9-20.1-20-20.1z" fill="#aeafaf"/><path d="M171.3 33.5v-10c0-2.2 1.8-4 4-4v-6.6h-3.9c-11.1 0-20 9-20 20V48h24V37.5c-2.3 0-4.1-1.8-4.1-4z" fill="#36a6dc"/><defs ><path  d="M61.8-71.7v.2c-.1.1-.1.1-.2.1-.1.1-.1.3-.1.4-.2.1 0 .2 0 .3v.2c0 .1 0 .3.1.4.1.2.3.4.4.5.2.1.4.6.6.6s.4-.1.5-.1c.2 0 .4 0 .6-.1s.1-.3.3-.5c.1-.1.3 0 .4-.1.2-.1.3-.3.4-.5v-.2c0-.1.1-.2.1-.3s-.1-.1-.1-.2v-.3c0-.2 0-.4-.1-.5-.4-.7-1.2-.9-2-.8-.2 0-.3.1-.4.2-.2.1-.1.2-.3.2-.1 0-.2.1-.2.2v.3c0 .1 0 .1 0 0"/><path  d="M69.4-64v.2c-.1.1-.1.1-.2.1-.1.1-.1.3-.1.4-.2.1 0 .2 0 .3v.2c0 .1 0 .3.1.4.1.2.3.4.4.5.2.1.4.6.6.6s.4-.1.5-.1c.2 0 .4 0 .6-.1s.1-.3.3-.5c.1-.1.3 0 .4-.1.2-.1.3-.3.4-.5v-.2c0-.1.1-.2.1-.3s-.1-.1-.1-.2v-.3c0-.2 0-.4-.1-.5-.4-.7-1.2-.9-2-.8-.2 0-.3.1-.4.2-.2.1-.1.2-.3.2-.1 0-.2.1-.2.2v.3"/><path  d="M8.2-56.3v.2c-.1 0-.2 0-.2.1-.1.1-.1.3-.1.4-.2.1 0 .2 0 .3v.2c0 .1 0 .3.1.4.1.2.3.4.4.5.2.1.4.6.6.6s.4-.1.5-.1c.2 0 .4 0 .6-.1s.1-.3.3-.5c.1-.1.3 0 .4-.1.2-.1.3-.3.4-.5v-.2c0-.1.1-.2.1-.3s-.1-.1-.1-.2v-.3c0-.2 0-.4-.1-.5-.4-.7-1.2-.9-2-.8-.2 0-.3.1-.4.2-.2.1-.1.2-.3.2-.1 0-.2.1-.2.2v.3c-.1 0-.1 0 0 0"/><path  d="M69.4-18.1v.2c-.1.1-.1.1-.2.1-.1.1-.1.3-.1.4-.2.1 0 .2 0 .3v.2c0 .1 0 .3.1.4.1.2.3.4.4.5.2.1.4.6.6.6s.4-.1.5-.1c.2 0 .4 0 .6-.1s.1-.3.3-.5c.1-.1.3 0 .4-.1.2-.1.3-.3.4-.5v-.2c0-.1.1-.2.1-.3s-.1-.1-.1-.2v-.3c0-.2 0-.4-.1-.5-.4-.7-1.2-.9-2-.8-.2 0-.3.1-.4.2-.2.1-.1.2-.3.2-.1 0-.2.1-.2.2v.3c0 .1 0 0 0 0"/><path  d="M61.8-10.4v.2c-.1.1-.1.1-.2.1-.1.1-.1.3-.1.4-.2.1 0 .2 0 .3v.2c0 .1 0 .3.1.4.1.2.3.4.4.5.2.1.4.6.6.6s.4-.1.5-.1c.2 0 .4 0 .6-.1s.1-.3.3-.4c.1-.1.3 0 .4-.1.2-.1.3-.3.4-.5v-.2c0-.1.1-.2.1-.3s-.1-.1-.1-.2v-.3c0-.2 0-.4-.1-.5-.4-.7-1.2-.9-2-.8-.2 0-.3.1-.4.2-.2.1-.1.2-.3.2-.1 0-.2.1-.2.2v.2"/><path  d="M61.8-2.8v.2c-.1.1-.1.1-.2.1-.1.1-.1.3-.1.4-.2.1 0 .2 0 .3v.2c0 .1 0 .3.1.4 0 .2.2.4.4.5s.4.6.6.6.4-.1.5-.1c.2 0 .4 0 .6-.1s.1-.3.3-.5c.1-.1.3 0 .4-.1.2-.1.3-.3.4-.5v-.2c0-.1.1-.2.1-.3s-.1-.1-.1-.2v-.3c0-.2 0-.4-.1-.5-.4-.7-1.2-.9-2-.8-.2 0-.3.1-.4.2-.2.1-.1.2-.3.2-.1 0-.2.1-.2.2v.3c0 .1 0 0 0 0"/><path  d="M31.1-2.8v.2c-.1.1-.1.1-.2.1-.1.1-.1.3-.1.4-.2.1 0 .2 0 .3v.2c0 .1 0 .3.1.4.1.2.2.4.4.5s.4.6.6.6.4-.1.5-.1c.2 0 .4 0 .6-.1s.1-.3.3-.5c.1-.1.3 0 .4-.1.2-.1.3-.3.4-.5v-.2c0-.1.1-.2.1-.3s-.1-.1-.1-.2v-.3c0-.2 0-.4-.1-.5-.4-.7-1.2-.9-2-.8-.2 0-.3.1-.4.2-.2.1-.1.2-.3.2-.1 0-.2.1-.2.2v.3c0 .1 0 0 0 0"/></defs></svg>