<?xml version="1.0" encoding="utf-8"?>
<!-- Generator: Adobe Illustrator 24.3.0, SVG Export Plug-In . SVG Version: 6.00 Build 0)  -->
<svg version="1.1" xmlns="http://www.w3.org/2000/svg" xmlns:xlink="http://www.w3.org/1999/xlink" x="0px" y="0px"
	 viewBox="0 0 173 173" style="enable-background:new 0 0 173 173;" xml:space="preserve">
<style type="text/css">
	.st0{fill:#0779AF;}
	.st1{fill:none;stroke:#FFFFFF;stroke-width:4;stroke-miterlimit:10;}
</style>
<g id="Filled_circle">
	<g id="Layer_1_1_">
		<g>
			<g>
				<path class="st0" d="M86.5,0C38.7,0,0,38.7,0,86.5S38.7,173,86.5,173S173,134.3,173,86.5S134.3,0,86.5,0z"/>
			</g>
		</g>
	</g>
</g>
<g id="fingerprint_off">
	<g>
		<path class="st1" d="M95.6,119.8C89.2,130.4,81.1,138,78,141.5"/>
		<path class="st1" d="M57.2,118.7c8.4-8.6,14.6-17,16.3-25.7c0.7-5,0.5-6.7,0.6-8.7c0.7-16.4,2.5-22.8,15.5-22.8
			c15.3,0,16.8,16.2,13.6,37.6c-0.7,4.9-2.2,9.5-4.1,13.8"/>
		<path class="st1" d="M84.2,88c0.4-9-0.6-16.4,5.1-16.4c7.3,0,5.5,10.9,5.2,19.2c-0.3,8.8-2,22.2-25.3,46"/>
		<path class="st1" d="M61.7,128.8c12.9-14.2,19.9-22.9,21.8-33.2c0-0.2,0.1-0.4,0.1-0.6"/>
		<path class="st1" d="M113,70.3c1.7,6.8,1.6,14.5,1.1,21c-1.1,15.3-5.5,32.6-22.3,50.2"/>
		<path class="st1" d="M65.9,67.2c2.7-8.6,9.2-15.5,23.4-15.5c11.8,0,18.2,5.3,21.6,12.6"/>
		<path class="st1" d="M54,107c8-9.8,10.8-16,10.3-25.2c-0.1-2.7,0-5.8,0.5-9"/>
		<path class="st1" d="M123.3,99.5c-1,6.9-2.5,12.4-5.4,20.5"/>
		<path class="st1" d="M116.5,54.1c5.7,7.5,9.7,21.6,7.5,40.5"/>
		<path class="st1" d="M88.3,42c8.8-0.7,16.1,1.8,23.5,7.5"/>
		<path class="st1" d="M53.9,86.4c0.3-1.7,0.4-3.6,0.5-5.7c0.3-11.7,3.1-29,18.4-35c2.9-1.1,5.7-2,8.5-2.6"/>
		<path class="st1" d="M43.3,104.2c3.1-3.5,7.4-7.5,9.5-12.5"/>
		<path class="st1" d="M133.1,64.8c1.4,4.8,2.1,10,2.1,15.9c0,12.5-0.4,17.8-1.6,24.9"/>
		<path class="st1" d="M60.6,41.5c3.9-3.4,8.5-6.1,14.3-7.9c12-3.8,30.2-3.1,42.8,7.7c5,4.3,9,9.1,12,14.6"/>
		<path class="st1" d="M37.8,94.2c2.7-3.1,5.9-6,5.7-11c-0.2-5-0.2-16.6,5.7-27.1c1-1.7,2-3.4,3-4.9"/>
	</g>
</g>
</svg>
