<svg xmlns="http://www.w3.org/2000/svg" width="201.4" height="92.4" xmlns:v="https://vecta.io/nano"><g fill="#36a6dc"><path d="M51.8 11.5l28.7-3.7.4 2.7-28.8 3.7-.3-2.7z"/><path d="M76.1 18.4l4.2-9L73.4 2l2-1.9 8.2 8.8-5 10.6-2.5-1.1zM2.6 19l28-3.7.4 2.7-28.1 3.7-.3-2.7z"/><path d="M0 21.3L6.3 9.9h0l2.4 1.3-5.3 9.6 7.1 7-1.9 1.9L0 21.3z"/></g><g fill="#aeafaf"><path d="M40 92.4C33.2 92.2 27.3 87 23 82h0c-4.3-5-7-10-7-10h0l-.2-.6-.7-43.3h0c-.1-1.4.8-2.8 2-3.3h0c1.1-.5 2.4-.6 3.7-.6h0c3.8.1 8.5 4.5 8.9 15.4h0v7.8l20.7-21.3 7.3-7.3h0c.8-.9 1.9-1.5 3.2-1.5h0c1.8 0 3.4 1.2 5.2 3.1h0c.8.8 1 1.9 1 2.9h0c-.1 3.5-2.7 7.8-6.6 11.4h0c-4.8 4.4-15 15-15 15.1h0l-2-1.9s10.2-10.6 15.2-15.2h0c3.6-3.2 5.8-7.4 5.8-9.4h0c0-.6-.1-.9-.3-1.1h0C62.6 20.5 61.5 20 61 20h0c-.3 0-.7.1-1.3.7h0C58 22.5 52.5 28 52.5 28h0l-23 23.7-2.3-1V39.6c-.3-10.2-4.7-12.7-6.2-12.7h0c-1.3 0-2.2.1-2.6.3h0c-.4.3-.4.2-.5.8h0c0 1.9.6 38.9.7 42.9h0c.6 1.1 3 5.2 6.5 9.3h0c4.1 4.8 9.6 9.4 14.9 9.5h0 .2 0c10.9.2 24-15.4 25.7-18.1h0l.2-.2s.4-.4.8-1.2h0c.4-.8.9-1.8.9-2.9h0c0-1.4-.6-3-3.1-4.9h0l1.6-2.2c3.1 2.2 4.3 4.9 4.3 7.1h0c0 3.1-1.9 5.3-2.4 5.8h0c-2.3 3.1-14.8 19-27.9 19.2h0c-.2.1-.2.1-.3.1h0z"/><path d="M51.6 55.2l8.1-7.8c1-1.2 1.3-2.1 1.3-3h0c0-1.5-1.1-3.2-2.4-4.4h0c-1.3-1.2-2.5-1.9-2.5-1.9h0l1.4-2.4c0 .1 6 3.2 6.2 8.7h0c0 1.6-.6 3.2-2 4.9h0l-8.2 7.9-1.9-2h0z"/><path d="M58.1 65.1l6.1-5.8c1-1.2 1.3-2.1 1.3-3h0c0-1.5-1.1-3.2-2.4-4.4h0c-1.3-1.2-2.5-1.9-2.5-1.9h0l1.4-2.4c0 .1 6 3.2 6.2 8.7h0c0 1.6-.6 3.2-2 4.9h0L60 67l-1.9-1.9h0z"/></g><path d="M173.1 25v6.5c0 1.5.9 2.7 2.1 3.3.5.2 1 .3 1.5.3s.9-.1 1.4-.3c1.3-.5 2.3-1.8 2.3-3.4V25c0-1.5-.9-2.8-2.3-3.4-.4-.2-.9-.3-1.4-.3s-1 .1-1.5.3c-1.3.7-2.1 1.9-2.1 3.4z" fill="#36a6dc"/><path d="M181.3 12.9h-3.2v6.6h.1c2.2 0 4 1.8 4 4v10c0 2.2-1.8 4-4 4h-.1V48h-2.9V37.5c-2.2 0-4-1.8-4-4v-10c0-2.2 1.8-4 4-4v-6.6h-3.9c-11.1 0-20 9-20 20v15.2V72c0 11.1 9 20 20 20h10c11.1 0 20-9 20-20V48.1 32.9a19.93 19.93 0 0 0-20-20z" fill="#aeafaf"/><defs ><path  d="M61.8-71.7v.2c-.1.1-.1.1-.2.1-.1.1-.1.3-.1.4-.2.1 0 .2 0 .3v.2c0 .1 0 .3.1.4.1.2.3.4.4.5.2.1.4.6.6.6s.4-.1.5-.1c.2 0 .4 0 .6-.1s.1-.3.3-.5c.1-.1.3 0 .4-.1.2-.1.3-.3.4-.5v-.2c0-.1.1-.2.1-.3s-.1-.1-.1-.2v-.3c0-.2 0-.4-.1-.5-.4-.7-1.2-.9-2-.8-.2 0-.3.1-.4.2-.2.1-.1.2-.3.2-.1 0-.2.1-.2.2v.3c0 .1 0 .1 0 0"/><path  d="M69.4-64v.2c-.1.1-.1.1-.2.1-.1.1-.1.3-.1.4-.2.1 0 .2 0 .3v.2c0 .1 0 .3.1.4.1.2.3.4.4.5.2.1.4.6.6.6s.4-.1.5-.1c.2 0 .4 0 .6-.1s.1-.3.3-.5c.1-.1.3 0 .4-.1.2-.1.3-.3.4-.5v-.2c0-.1.1-.2.1-.3s-.1-.1-.1-.2v-.3c0-.2 0-.4-.1-.5-.4-.7-1.2-.9-2-.8-.2 0-.3.1-.4.2-.2.1-.1.2-.3.2-.1 0-.2.1-.2.2v.3"/><path  d="M8.2-56.3v.2c-.1 0-.2 0-.2.1-.1.1-.1.3-.1.4-.2.1 0 .2 0 .3v.2c0 .1 0 .3.1.4.1.2.3.4.4.5.2.1.4.6.6.6s.4-.1.5-.1c.2 0 .4 0 .6-.1s.1-.3.3-.5c.1-.1.3 0 .4-.1.2-.1.3-.3.4-.5v-.2c0-.1.1-.2.1-.3s-.1-.1-.1-.2v-.3c0-.2 0-.4-.1-.5-.4-.7-1.2-.9-2-.8-.2 0-.3.1-.4.2-.2.1-.1.2-.3.2-.1 0-.2.1-.2.2v.3c-.1 0-.1 0 0 0"/><path  d="M69.4-18.1v.2c-.1.1-.1.1-.2.1-.1.1-.1.3-.1.4-.2.1 0 .2 0 .3v.2c0 .1 0 .3.1.4.1.2.3.4.4.5.2.1.4.6.6.6s.4-.1.5-.1c.2 0 .4 0 .6-.1s.1-.3.3-.5c.1-.1.3 0 .4-.1.2-.1.3-.3.4-.5v-.2c0-.1.1-.2.1-.3s-.1-.1-.1-.2v-.3c0-.2 0-.4-.1-.5-.4-.7-1.2-.9-2-.8-.2 0-.3.1-.4.2-.2.1-.1.2-.3.2-.1 0-.2.1-.2.2v.3c0 .1 0 0 0 0"/><path  d="M61.8-10.4v.2c-.1.1-.1.1-.2.1-.1.1-.1.3-.1.4-.2.1 0 .2 0 .3v.2c0 .1 0 .3.1.4.1.2.3.4.4.5.2.1.4.6.6.6s.4-.1.5-.1c.2 0 .4 0 .6-.1s.1-.3.3-.4c.1-.1.3 0 .4-.1.2-.1.3-.3.4-.5v-.2c0-.1.1-.2.1-.3s-.1-.1-.1-.2v-.3c0-.2 0-.4-.1-.5-.4-.7-1.2-.9-2-.8-.2 0-.3.1-.4.2-.2.1-.1.2-.3.2-.1 0-.2.1-.2.2v.2"/><path  d="M61.8-2.8v.2c-.1.1-.1.1-.2.1-.1.1-.1.3-.1.4-.2.1 0 .2 0 .3v.2c0 .1 0 .3.1.4 0 .2.2.4.4.5s.4.6.6.6.4-.1.5-.1c.2 0 .4 0 .6-.1s.1-.3.3-.5c.1-.1.3 0 .4-.1.2-.1.3-.3.4-.5v-.2c0-.1.1-.2.1-.3s-.1-.1-.1-.2v-.3c0-.2 0-.4-.1-.5-.4-.7-1.2-.9-2-.8-.2 0-.3.1-.4.2-.2.1-.1.2-.3.2-.1 0-.2.1-.2.2v.3c0 .1 0 0 0 0"/><path  d="M31.1-2.8v.2c-.1.1-.1.1-.2.1-.1.1-.1.3-.1.4-.2.1 0 .2 0 .3v.2c0 .1 0 .3.1.4.1.2.2.4.4.5s.4.6.6.6.4-.1.5-.1c.2 0 .4 0 .6-.1s.1-.3.3-.5c.1-.1.3 0 .4-.1.2-.1.3-.3.4-.5v-.2c0-.1.1-.2.1-.3s-.1-.1-.1-.2v-.3c0-.2 0-.4-.1-.5-.4-.7-1.2-.9-2-.8-.2 0-.3.1-.4.2-.2.1-.1.2-.3.2-.1 0-.2.1-.2.2v.3c0 .1 0 0 0 0"/></defs></svg>