<svg xmlns="http://www.w3.org/2000/svg" width="228.2" height="52.9" xmlns:v="https://vecta.io/nano"><path d="M50.6 49.9c0 .5-.4 1-.9 1h-.1H3c-.5 0-1-.4-1-.9v-.1V3c0-.5.4-1 .9-1H3h46.6c.5 0 1 .4 1 .9V3v46.9zm175.6 0c0 .6-.5 1-1 1h-46.6c-.6 0-1-.5-1-1V3c0-.6.5-1 1-1h46.6c.5 0 1 .4 1 .9V3v46.9z" fill="#fff"/><path d="M225.2 0h-46.6c-1.7 0-3 1.3-3 3v19h-123V3c0-1.7-1.3-3-3-3H3C1.3 0 0 1.3 0 3v46.9c0 1.7 1.3 3 3 3h46.6c1.7 0 3-1.3 3-3V29.1h122.9v20.8c0 1.7 1.3 3 3 3h46.6c1.7 0 3-1.3 3-3V3c.1-1.7-1.3-3-2.9-3zM50.6 49.9c0 .5-.4 1-.9 1h-.1H3c-.5 0-1-.4-1-.9v-.1V3c0-.5.4-1 .9-1H3h46.6c.5 0 1 .4 1 .9V3v46.9zm175.6 0c0 .6-.5 1-1 1h-46.6c-.6 0-1-.5-1-1V3c0-.6.5-1 1-1h46.6c.5 0 1 .4 1 .9V3v46.9z" fill="#ccc"/><g fill="#006bbd"><path d="M200.2 33.4V20.8h3v12.6h-3z"/><path d="M195.4 28.6v-3H208v3h-12.6zM20 27.4v-3h10.8v3H20z"/></g></svg>